<svg xmlns="http://www.w3.org/2000/svg" xmlns:xlink="http://www.w3.org/1999/xlink" width="190" zoomAndPan="magnify" viewBox="0 0 142.5 30.000001" height="40" preserveAspectRatio="xMidYMid meet" version="1.0"><defs><g/><clipPath id="e5be67afe2"><path d="M 2.054688 4 L 20 4 L 20 26 L 2.054688 26 Z M 2.054688 4 " clip-rule="nonzero"/></clipPath></defs><g clip-path="url(#e5be67afe2)"><g fill="#ffffff" fill-opacity="1"><g transform="translate(2.528188, 21.123435)"><g><path d="M 5.046875 3.34375 L 4.171875 2.03125 C 4.210938 1.976562 4.265625 1.910156 4.328125 1.828125 C 4.390625 1.753906 4.523438 1.609375 4.734375 1.390625 C 4.941406 1.179688 5.140625 0.992188 5.328125 0.828125 C 5.523438 0.671875 5.75 0.53125 6 0.40625 C 6.257812 0.28125 6.5 0.21875 6.71875 0.21875 L 6.71875 0.140625 C 4.84375 -0.222656 3.328125 -1.148438 2.171875 -2.640625 C 1.015625 -4.140625 0.4375 -5.921875 0.4375 -7.984375 C 0.4375 -10.304688 1.207031 -12.257812 2.75 -13.84375 C 4.300781 -15.4375 6.179688 -16.234375 8.390625 -16.234375 C 10.609375 -16.234375 12.484375 -15.4375 14.015625 -13.84375 C 15.546875 -12.257812 16.3125 -10.304688 16.3125 -7.984375 C 16.3125 -6.085938 15.800781 -4.414062 14.78125 -2.96875 C 13.769531 -1.53125 12.429688 -0.5625 10.765625 -0.0625 L 10.765625 0.015625 C 10.835938 0.015625 11.175781 0.078125 11.78125 0.203125 C 12.394531 0.328125 12.878906 0.390625 13.234375 0.390625 C 13.722656 0.390625 14.164062 0.300781 14.5625 0.125 C 14.96875 -0.0507812 15.25 -0.222656 15.40625 -0.390625 L 15.640625 -0.65625 L 16.78125 1.796875 C 16.75 1.859375 16.703125 1.9375 16.640625 2.03125 C 16.585938 2.132812 16.457031 2.304688 16.25 2.546875 C 16.050781 2.796875 15.820312 3.015625 15.5625 3.203125 C 15.3125 3.398438 14.976562 3.578125 14.5625 3.734375 C 14.144531 3.890625 13.695312 3.96875 13.21875 3.96875 C 12.4375 3.96875 11.476562 3.710938 10.34375 3.203125 C 9.207031 2.703125 8.226562 2.453125 7.40625 2.453125 C 6.945312 2.453125 6.519531 2.523438 6.125 2.671875 C 5.738281 2.828125 5.460938 2.976562 5.296875 3.125 Z M 4.375 -7.984375 C 4.375 -7.367188 4.441406 -6.789062 4.578125 -6.25 C 4.722656 -5.71875 4.945312 -5.234375 5.25 -4.796875 C 5.550781 -4.359375 5.96875 -4.007812 6.5 -3.75 C 7.039062 -3.5 7.671875 -3.375 8.390625 -3.375 C 9.742188 -3.375 10.75 -3.8125 11.40625 -4.6875 C 12.0625 -5.570312 12.390625 -6.671875 12.390625 -7.984375 C 12.390625 -9.285156 12.050781 -10.375 11.375 -11.25 C 10.707031 -12.132812 9.710938 -12.578125 8.390625 -12.578125 C 7.078125 -12.578125 6.078125 -12.132812 5.390625 -11.25 C 4.710938 -10.363281 4.375 -9.273438 4.375 -7.984375 Z M 4.375 -7.984375 "/></g></g></g></g><g fill="#ffffff" fill-opacity="1"><g transform="translate(19.28256, 21.123435)"><g><path d="M 13.40625 -15.953125 L 13.40625 -5.65625 C 13.40625 -3.695312 12.878906 -2.210938 11.828125 -1.203125 C 10.773438 -0.203125 9.226562 0.296875 7.1875 0.296875 C 5.15625 0.296875 3.609375 -0.203125 2.546875 -1.203125 C 1.492188 -2.210938 0.96875 -3.695312 0.96875 -5.65625 L 0.96875 -15.953125 L 4.59375 -15.953125 L 4.59375 -6.71875 C 4.59375 -5.4375 4.796875 -4.539062 5.203125 -4.03125 C 5.609375 -3.53125 6.269531 -3.28125 7.1875 -3.28125 C 8.101562 -3.28125 8.765625 -3.53125 9.171875 -4.03125 C 9.578125 -4.539062 9.78125 -5.4375 9.78125 -6.71875 L 9.78125 -15.953125 Z M 13.40625 -15.953125 "/></g></g></g><g fill="#ffffff" fill-opacity="1"><g transform="translate(33.66002, 21.123435)"><g><path d="M 9.265625 -15.953125 L 15.6875 0 L 11.796875 0 L 10.609375 -3.1875 L 4.546875 -3.1875 L 3.359375 0 L -0.546875 0 L 5.890625 -15.953125 Z M 9.375 -6.375 L 7.59375 -11.015625 L 7.5625 -11.015625 L 5.78125 -6.375 Z M 9.375 -6.375 "/></g></g></g><g fill="#ffffff" fill-opacity="1"><g transform="translate(48.810454, 21.123435)"><g><path d="M 4.796875 -9.890625 L 4.796875 0 L 1.15625 0 L 1.15625 -15.953125 L 4.796875 -15.953125 L 11.140625 -6.046875 L 11.171875 -6.046875 L 11.171875 -15.953125 L 14.8125 -15.953125 L 14.8125 0 L 11.171875 0 L 4.828125 -9.890625 Z M 4.796875 -9.890625 "/></g></g></g><g fill="#ffffff" fill-opacity="1"><g transform="translate(64.772526, 21.123435)"><g><path d="M 0.15625 -12.75 L 0.15625 -15.953125 L 11.359375 -15.953125 L 11.359375 -12.75 L 7.578125 -12.75 L 7.578125 0 L 3.9375 0 L 3.9375 -12.75 Z M 0.15625 -12.75 "/></g></g></g><g fill="#ffffff" fill-opacity="1"><g transform="translate(76.289952, 21.123435)"><g><path d="M 13.390625 0 L 10.84375 -8.953125 L 8.296875 0 L 4.25 0 L -0.296875 -15.953125 L 3.75 -15.953125 L 6.46875 -5 L 6.578125 -5 L 9.46875 -15.953125 L 12.21875 -15.953125 L 15.109375 -5 L 15.21875 -5 L 17.9375 -15.953125 L 21.953125 -15.953125 L 17.421875 0 Z M 13.390625 0 "/></g></g></g><g fill="#ffffff" fill-opacity="1"><g transform="translate(97.952754, 21.123435)"><g><path d="M 9.265625 -15.953125 L 15.6875 0 L 11.796875 0 L 10.609375 -3.1875 L 4.546875 -3.1875 L 3.359375 0 L -0.546875 0 L 5.890625 -15.953125 Z M 9.375 -6.375 L 7.59375 -11.015625 L 7.5625 -11.015625 L 5.78125 -6.375 Z M 9.375 -6.375 "/></g></g></g><g fill="#ffffff" fill-opacity="1"><g transform="translate(113.103188, 21.123435)"><g><path d="M 6.140625 0 L -0.546875 -15.953125 L 3.5625 -15.953125 L 7.578125 -5.46875 L 11.59375 -15.953125 L 15.6875 -15.953125 L 9 0 Z M 6.140625 0 "/></g></g></g><g fill="#ffffff" fill-opacity="1"><g transform="translate(128.253622, 21.123435)"><g><path d="M 10.28125 -15.953125 L 10.28125 -12.75 L 4.796875 -12.75 L 4.796875 -9.59375 L 10.046875 -9.59375 L 10.046875 -6.390625 L 4.796875 -6.390625 L 4.796875 -3.1875 L 10.28125 -3.1875 L 10.28125 0 L 1.15625 0 L 1.15625 -15.953125 Z M 10.28125 -15.953125 "/></g></g></g></svg>